<?xml version="1.0" encoding="UTF-8" standalone="no"?>
<!-- Created with Inkscape (http://www.inkscape.org/) -->

<svg
  width="256"
  height="256"
  viewBox="0 0 67.73333 67.733335"
  version="1.1"
  id="svg5"
  xmlns="http://www.w3.org/2000/svg"
  xmlns:svg="http://www.w3.org/2000/svg">
  <defs
    id="defs2"/>
  <g
    id="layer1">
    <g
      style="fill:#000000"
      id="g21"
      transform="matrix(2.184842,0,0,2.3677237,7.6485627,5.4539823)">
      <path
        d="M 0,0 H 24 V 24 H 0 Z"
        fill="none"
        id="path9"/>
      <path
        d="M 14,2 H 6 C 4.9,2 4.01,2.9 4.01,4 L 4,20 c 0,1.1 0.89,2 1.99,2 H 18 c 1.1,0 2,-0.9 2,-2 V 8 Z m 4,18 H 6 V 4 h 7 v 5 h 5 z M 8,15.01 9.41,16.42 11,14.84 V 19 h 2 V 14.84 L 14.59,16.43 16,15.01 12.01,11 Z"
        id="path11"/>
    </g>
  </g>
</svg>
